<svg height="512" width="512" xmlns="http://www.w3.org/2000/svg"><ellipse cx="367.153" cy="129.898" fill="#49cb8b" rx="67.962" ry="32.524" transform="rotate(-59.07 367.044 129.846)"/><ellipse cx="203.157" cy="79.946" fill="#49cb8b" rx="67.962" ry="32.524" transform="rotate(-14.76 202.788 80.028)"/><path d="M332.138 278.303a7.726 7.726 0 01-7.726-7.726c0-3.183.079-6.896.172-11.195.449-21.021 1.202-56.203-6.891-91.426-9.579-41.693-29.21-73.06-58.345-93.231a7.726 7.726 0 118.796-12.706c75.007 51.928 72.822 154.074 71.889 197.692-.09 4.21-.168 7.847-.168 10.865a7.727 7.727 0 01-7.727 7.727z" fill="#13b766"/><path d="M457.009 303.589l-12.022 60.348-124.848 64.067-11.157-5.707-204.295-104.605 158.195-41.115c16.431-6.233 32.945-9.539 49.026-10.724 77.614-5.738 145.101 37.736 145.101 37.736z" fill="#d5694c"/><path d="M308.982 422.296L104.687 317.692l158.195-41.115c16.431-6.233 32.945-9.539 49.026-10.724-22.437 3.183-67.724 66.776-3.863 133.666 13.269 13.897 11.723 20.717.937 22.777z" fill="#a64c31"/><path d="M499.297 362.051l-103.646 88.41a66.578 66.578 0 01-47.893 15.762l-243.72-17.163-69.352 15.02L0 332.753l73.678-41.836 146.358-82.043a39.92 39.92 0 0119.584-5.13c14.041 0 27.671 7.386 35.026 20.501 10.034 17.894 4.955 40.465-11.765 52.333l-71.649 50.87a215.758 215.758 0 0055.97 22.499l95.013 23.426 114.793-69.784c16.4-9.972 37.735-5.408 48.614 10.415 10.508 15.267 7.778 36.015-6.325 48.047z" fill="#fcd0a3"/><path d="M499.297 362.051l-103.646 88.41a66.578 66.578 0 01-47.893 15.762l-243.72-17.163-69.352 15.02L0 332.753l73.678-41.836 146.358-82.043a39.92 39.92 0 0119.584-5.13c14.041 0 27.671 7.386 35.026 20.501-14.536-25.59-193.097 89.863-193.097 128.793s206.747 83.239 267.157 73.833c60.42-9.396 97.115-73.267 150.591-64.82z" fill="#ffb983"/><path d="M225.599 278.743a19.47 19.47 0 01-16.215-8.668c-8.257-12.329-10.694-24.679-10.793-25.198a7.727 7.727 0 0115.172-2.931c.05.248 2.069 9.986 8.46 19.53 1.154 1.723 3.522 2.292 5.391 1.296l9.577-5.108a7.725 7.725 0 0110.453 3.182 7.726 7.726 0 01-3.182 10.453l-9.577 5.108a19.695 19.695 0 01-9.286 2.336z" fill="#e7ab8a"/></svg>