<svg height="512pt" viewBox="0 -4 512 512" width="512pt" xmlns="http://www.w3.org/2000/svg"><path d="m195.011719 399.851562c0 51.714844-41.921875 93.636719-93.636719 93.636719s-93.640625-41.921875-93.640625-93.636719c0-51.714843 41.925781-93.636718 93.640625-93.636718s93.636719 41.921875 93.636719 93.636718zm0 0" fill="#ffe261"/><path d="m101.375 501.226562c-55.898438 0-101.375-45.476562-101.375-101.375 0-55.898437 45.476562-101.375 101.375-101.375 55.894531 0 101.371094 45.476563 101.371094 101.375 0 55.898438-45.476563 101.375-101.371094 101.375zm0-187.277343c-47.367188 0-85.902344 38.535156-85.902344 85.902343 0 47.367188 38.535156 85.902344 85.902344 85.902344s85.902344-38.535156 85.902344-85.902344c0-47.367187-38.535156-85.902343-85.902344-85.902343zm0 0" fill="#f2a918"/><path d="m108.34375 391.183594v-27.984375c5.207031.558593 8.574219 2.234375 11.035156 3.460937 1.707032.851563 3.054688 1.523438 4.363282 1.523438 4.121093 0 6.1875-5.113282 6.1875-7.976563 0-7.039062-13.507813-9.589843-21.585938-9.996093v-6.796876c0-2.894531-2.355469-5.25-5.25-5.25s-5.25 2.355469-5.25 5.25v7.179688c-7.03125.929688-12.984375 3.367188-17.226562 7.050781-5.175782 4.492188-7.800782 10.730469-7.800782 18.53125 0 7.714844 2.628906 13.660157 8.03125 18.179688 4.644532 3.882812 10.6875 6.234375 16.996094 8.488281v32.40625c-7.945312-.957031-12.382812-4.730469-15.628906-7.488281-2.050782-1.746094-3.667969-3.121094-5.414063-3.121094-3.421875 0-6.460937 4.460937-6.460937 7.976563 0 6.34375 10.460937 15.609374 27.503906 16.328124v7.347657c0 2.894531 2.355469 5.25 5.25 5.25 2.890625 0 5.246094-2.355469 5.246094-5.25v-7.890625c7.269531-1.207032 13.273437-4.246094 17.371094-8.792969 4.441406-4.929687 6.691406-11.5 6.691406-19.519531.003906-18.3125-12.398438-24.535156-24.058594-28.90625zm10.039062 30.417968c0 6.6875-3.472656 11.191407-10.039062 13.035157v-27.417969c4.996094 2.425781 10.039062 6.058594 10.039062 14.382812zm-31.542968-46.804687c0-5.828125 3.804687-9.660156 11.003906-11.089844v23.628907c-6.796875-2.757813-11.003906-5.839844-11.003906-12.539063zm0 0" fill="#f2a918"/><g fill="#585e68"><path d="m260.4375 438.132812c-1.789062 0-3.417969-.027343-4.980469-.078124-4.269531-.140626-7.617187-3.71875-7.476562-7.988282.144531-4.269531 3.675781-7.601562 7.988281-7.472656 1.390625.042969 2.851562.066406 4.46875.066406 28.527344 0 56.773438-7.15625 81.675781-20.691406 3.753907-2.039062 8.453125-.648438 10.492188 3.101562 2.039062 3.757813.652343 8.453126-3.101563 10.492188-27.167968 14.765625-57.964844 22.570312-89.066406 22.570312zm0 0"/><path d="m84.023438 289.75c-3.695313 0-6.964844-2.65625-7.613282-6.425781-1.804687-10.5-2.722656-21.246094-2.722656-31.941407 0-48.539062 18.53125-94.519531 52.175781-129.476562 2.960938-3.078125 7.859375-3.171875 10.9375-.210938 3.078125 2.964844 3.171875 7.859376.207031 10.941407-30.855468 32.058593-47.847656 74.230469-47.847656 118.746093 0 9.820313.835938 19.683594 2.496094 29.320313.722656 4.210937-2.101562 8.210937-6.3125 8.9375-.445312.074219-.882812.109375-1.320312.109375zm0 0"/><path d="m435.070312 219.644531c-3.539062 0-6.730468-2.441406-7.539062-6.039062-9.589844-42.628907-34.925781-79.65625-71.34375-104.257813-3.542969-2.390625-4.472656-7.199218-2.082031-10.738281s7.199219-4.472656 10.738281-2.082031c39.699219 26.820312 67.324219 67.191406 77.78125 113.683594.9375 4.167968-1.683594 8.308593-5.851562 9.246093-.570313.128907-1.140626.1875-1.703126.1875zm0 0"/><path d="m480.46875 211.90625h-82.046875l41.023437 41.023438zm0 0"/><path d="m105.078125 97.519531 54.414063 61.40625 3.492187-57.910156zm0 0"/><path d="m250.5 470.78125 10.472656-81.375-45.921875 35.449219zm0 0"/></g><path d="m512 503.640625h-137.730469c0-19.019531 7.714844-36.234375 20.171875-48.703125 12.460938-12.460938 29.683594-20.164062 48.691406-20.164062 5.199219 0 10.265626.578124 15.132813 1.671874.175781.03125.339844.070313.515625.113282 12.738281 2.960937 24.113281 9.457031 33.046875 18.378906 12.457031 12.46875 20.171875 29.683594 20.171875 48.703125zm0 0" fill="#cc0b4b"/><path d="m512 503.640625h-107.472656c0-19.019531 7.707031-36.234375 20.164062-48.703125 9.066406-9.058594 20.628906-15.605469 33.574219-18.496094.175781.03125.339844.074219.515625.113282 12.738281 2.960937 24.113281 9.460937 33.046875 18.378906 12.457031 12.472656 20.171875 29.6875 20.171875 48.707031zm0 0" fill="#ea4455"/><path d="m511.996094 350.914062v46.894532c0 33.558594-24.003906 61.507812-55.78125 67.617187-4.234375.816407-8.609375 1.242188-13.082032 1.242188-38.03125 0-68.859374-30.828125-68.859374-68.859375v-46.898438c0-38.03125 30.828124-68.863281 68.859374-68.863281 4.472657 0 8.847657.425781 13.082032 1.242187 13.769531 2.644532 26.082031 9.394532 35.613281 18.925782 12.460937 12.464844 20.167969 29.683594 20.167969 48.699218zm0 0" fill="#ffd0a6"/><path d="m456.558594 465.355469c-.113282.03125-.230469.050781-.34375.070312-4.238282.816407-8.609375 1.238281-13.078125 1.238281-38.035157 0-68.863281-30.828124-68.863281-68.855468v-46.898438c0-38.027344 30.828124-68.867187 68.863281-68.867187 4.46875 0 8.839843.433593 13.078125 1.25.105468.019531.21875.039062.320312.0625-31.609375 6.238281-55.449218 34.117187-55.449218 67.554687v46.898438c.003906 33.449218 23.847656 61.316406 55.472656 67.546875zm0 0" fill="#e8b185"/><path d="m443.136719 430.433594c-8.320313 0-16.636719-3.167969-22.96875-9.5-2.214844-2.214844-2.214844-5.808594 0-8.023438 2.214843-2.214844 5.808593-2.214844 8.023437 0 8.238282 8.242188 21.648438 8.242188 29.890625 0 2.210938-2.214844 5.804688-2.214844 8.019531 0 2.214844 2.214844 2.214844 5.808594 0 8.023438-6.332031 6.332031-14.648437 9.5-22.964843 9.5zm0 0" fill="#e8b185"/><path d="m512 361.226562v10.167969c-81.527344-.101562-108.625-33.445312-108.625-33.445312 0 13.847656-13.851562 28.464843-29.101562 33.445312v-10.167969c0-38.03125 30.828124-68.867187 68.859374-68.867187 4.472657 0 8.851563.429687 13.082032 1.242187 13.773437 2.648438 26.085937 9.398438 35.613281 18.929688 12.460937 12.464844 20.171875 29.679688 20.171875 48.695312zm0 0" fill="#e8b185"/><path d="m512 350.914062v10.164063c-81.527344-.101563-108.625-33.445313-108.625-33.445313 0 13.851563-13.851562 28.464844-29.101562 33.445313v-10.164063c0-38.035156 30.828124-68.867187 68.859374-68.867187 4.472657 0 8.851563.425781 13.082032 1.242187 13.773437 2.644532 26.085937 9.398438 35.613281 18.929688 12.460937 12.460938 20.171875 29.679688 20.171875 48.695312zm0 0" fill="#ffe261"/><path d="m456.527344 283.355469c-24.371094 4.816406-44.136719 22.484375-51.890625 45.660156-.867188-.886719-1.269531-1.382813-1.269531-1.382813 0 13.851563-13.851563 28.46875-29.09375 33.449219v-10.167969c0-38.03125 30.828124-68.867187 68.855468-68.867187 4.476563 0 8.847656.433594 13.078125 1.246094.101563.023437.214844.042969.320313.0625zm0 0" fill="#f2a918"/><path d="m413.136719 398.875c-3.132813 0-5.671875-2.539062-5.671875-5.671875v-16.929687c0-3.132813 2.539062-5.671876 5.671875-5.671876 3.132812 0 5.671875 2.539063 5.671875 5.671876v16.929687c0 3.132813-2.539063 5.671875-5.671875 5.671875zm0 0" fill="#2f353f"/><path d="m473.136719 398.875c-3.132813 0-5.671875-2.539062-5.671875-5.671875v-16.929687c0-3.132813 2.539062-5.671876 5.671875-5.671876 3.132812 0 5.671875 2.539063 5.671875 5.671876v16.929687c0 3.132813-2.539063 5.671875-5.671875 5.671875zm0 0" fill="#2f353f"/><path d="m325.9375 110.777344-16.269531 28.183594h-95.378907l-16.269531-28.183594c-17.648437-30.570313-10.644531-65.878906 10.808594-88.265625 13.105469-13.664063 31.597656-22.511719 53.152344-22.511719 4.777343 0 9.402343.4375 13.855469 1.261719 48.519531 8.996093 76.136718 64.417969 50.101562 109.515625zm0 0" fill="#f2a918"/><path d="m325.9375 110.777344-16.269531 28.183594h-67.664063l-16.277344-28.183594c-17.648437-30.570313-10.644531-65.878906 10.816407-88.265625 10.199219-10.636719 23.660156-18.355469 39.292969-21.25 48.519531 8.996093 76.136718 64.417969 50.101562 109.515625zm0 0" fill="#ffe261"/><path d="m251.160156 145.332031c-3.519531 0-6.375-2.851562-6.375-6.371093 0-13.890626-4.824218-19.554688-10.933594-26.722657-6.875-8.066406-14.667968-17.214843-14.667968-37.652343 0-3.519532 2.851562-6.371094 6.371094-6.371094 3.519531 0 6.371093 2.851562 6.371093 6.371094 0 15.746093 5.386719 22.066406 11.625 29.386718 6.554688 7.6875 13.980469 16.402344 13.980469 34.988282 0 3.519531-2.851562 6.371093-6.371094 6.371093zm0 0" fill="#f2a918"/><path d="m272.796875 145.332031c-3.519531 0-6.371094-2.851562-6.371094-6.371093 0-18.585938 7.425781-27.300782 13.980469-34.988282 6.238281-7.320312 11.625-13.640625 11.625-29.386718 0-3.519532 2.851562-6.371094 6.371094-6.371094 3.519531 0 6.375 2.851562 6.375 6.371094 0 20.4375-7.796875 29.585937-14.671875 37.652343-6.109375 7.167969-10.933594 12.832031-10.933594 26.722657-.003906 3.519531-2.855469 6.371093-6.375 6.371093zm0 0" fill="#f2a918"/><path d="m280.886719 216.839844c0 8.234375-5.632813 13.402344-13.382813 15.015625-1.75.363281-3.601562.550781-5.519531.550781-10.445313 0-18.914063-5.472656-18.914063-15.566406zm0 0" fill="#2f353f"/><path d="m280.886719 216.839844c0 8.234375-5.632813 13.402344-13.382813 15.015625-7.746094-1.613281-13.390625-6.78125-13.390625-15.015625zm0 0" fill="#585e68"/><path d="m310.1875 138.960938v52.484374c0 14.492188-11.75 26.242188-26.238281 26.242188h-43.414063c-7.246094 0-13.804687-2.9375-18.554687-7.6875-4.753907-4.75-7.691407-11.3125-7.691407-18.554688v-52.484374zm0 0" fill="#b3b3b3"/><path d="m310.1875 138.960938v52.484374c0 14.492188-11.75 26.242188-26.238281 26.242188h-23.351563c-7.242187 0-13.804687-2.9375-18.546875-7.6875-4.753906-4.75-7.691406-11.3125-7.691406-18.554688v-52.484374zm0 0" fill="#ebebeb"/><path d="m309.925781 197.816406h-95.894531c-3.519531 0-6.371094-2.851562-6.371094-6.371094 0-3.519531 2.851563-6.371093 6.371094-6.371093h95.894531c3.519531 0 6.375 2.851562 6.375 6.371093 0 3.519532-2.855469 6.371094-6.375 6.371094zm0 0" fill="#b3b3b3"/><path d="m309.925781 197.816406h-95.894531c-3.519531 0-6.371094-2.851562-6.371094-6.371094 0-3.519531 2.851563-6.371093 6.371094-6.371093h95.894531c3.519531 0 6.375 2.851562 6.375 6.371093 0 3.519532-2.855469 6.371094-6.375 6.371094zm0 0" fill="#b3b3b3"/><path d="m309.925781 171.574219h-95.894531c-3.519531 0-6.371094-2.851563-6.371094-6.371094s2.851563-6.371094 6.371094-6.371094h95.894531c3.519531 0 6.375 2.851563 6.375 6.371094s-2.855469 6.371094-6.375 6.371094zm0 0" fill="#b3b3b3"/></svg>