<svg xmlns="http://www.w3.org/2000/svg" width="400" height="300"><path d="M202.85 278.478l83.433-24.485 20.951-233.485-106.288.274z" fill="#4db6ff"/><path d="M99.97 268.778C99.78 268.58 77.135 5.626 76.83 4.068l-.554-2.832h251.933s-22.629 267.372-22.899 267.66c-.347.37-102.151 30.672-102.628 30.547-.29-.075-102.52-30.466-102.71-30.665zm185.591-16.305c.461-.496 20.186-229.837 20.186-229.837H202.74s.069 254.434 2.027 253.81c1.138-.362 80.53-23.688 80.795-23.973z" fill="#0195fd"/><path d="M340.397 189.813s-52.33 1.365-52.33 1.171c0-.751 11.664-27.535 11.664-27.535s31.646 1.012 31.646-.2c0-.84-14.047-40.299-14.047-41.359 0-1.06 15.761-40.682 16.457-42.513.998-2.624 1.472-2.957 2.236-1.573.715 1.294 53.823 138.125 53.823 138.125h-39.798zM107.928 184.043s19.55-57.94 19.88-57.938c.33.002 19.34 36.69 20.238 37.904 1.466 1.981 31.867-88.238 31.867-88.238l30.434-.002s29.85 94.257 29.85 89.103c0-.564 38.475-88.52 38.475-88.52s38.764-.234 38.742.264c-.021.499-58.024 140.202-58.024 140.202l-38.566.64-26.612-82.432-28.038 82.378h-38.12zM12.91 80.054v140.66h36.287v-47.992l14.337-.006c14.882-.007 27.395-1.46 29.34-3.404.62-.62 6.317-16.487 12.662-35.262l11.537-34.137-2.414-3.101c-3.98-5.114-11.432-10.464-18.459-13.252-6.289-2.495-8.533-2.65-44.955-3.067zm36.287 27.117l11.412.026c19.134.043 26.037 5.156 26.037 19.289 0 8.305-2.638 13.49-8.428 16.57-2.761 1.469-7.429 2.186-16.44 2.527l-12.581.475z" fill="#3b3c3c"/></svg>