<svg id="Capa_1" enable-background="new 0 0 512 512" height="512" viewBox="0 0 512 512" width="512" xmlns="http://www.w3.org/2000/svg"><g><g><path d="m.185 328.566 2.266-29.412c.824-10.838 9.869-19.223 20.748-19.223h55.115c10.868 0 19.913 8.386 20.748 19.223l2.442 31.771h-101.463z" fill="#da4a54"/></g><g><path d="m306.753 330.927h-101.506l2.446-31.771c.832-10.844 9.876-19.221 20.751-19.221h55.113c10.875 0 19.918 8.377 20.751 19.221z" fill="#da4a54"/></g><g><path d="m511.959 330.925h-101.463l2.442-31.771c.834-10.838 9.879-19.223 20.748-19.223h55.114c10.879 0 19.924 8.386 20.748 19.223l2.266 29.412c.062.783.104 1.566.145 2.359z" fill="#da4a54"/></g><path d="m501.698 512h-491.396c-5.69 0-10.302-4.612-10.302-10.302v-135.389h512v135.389c0 5.69-4.612 10.302-10.302 10.302z" fill="#c19d8e"/><path d="m484.943 366.309v145.691h16.755c5.69 0 10.302-4.612 10.302-10.302v-135.389z" fill="#b78b7a"/><path d="m512 333.305v33.007h-512v-33.007c0-.793.021-1.586.041-2.38h511.917c.021.793.042 1.587.042 2.38z" fill="#665e66"/><path d="m512 333.305v33.007h-27.053v-35.387h27.011c.021.793.042 1.587.042 2.38z" fill="#544f57"/><g><path d="m457.883 415.22h-114.471l8.928-116.068c.834-10.844 9.876-19.217 20.752-19.217h55.112c10.876 0 19.918 8.373 20.752 19.217z" fill="#e28086"/><path d="m448.955 299.152c-.834-10.844-9.876-19.217-20.752-19.217h-20.813c10.876 0 19.918 8.373 20.752 19.217l8.928 116.068h20.813z" fill="#dd636e"/><path d="m392.922 512v-61.398c0-4.267 3.459-7.726 7.726-7.726s7.726 3.459 7.726 7.726v61.398z" fill="#544f57"/><path d="m457.883 450.602h-114.471c-5.747 0-10.406-4.659-10.406-10.406v-14.569c0-5.747 4.659-10.406 10.406-10.406h114.472c5.747 0 10.407 4.659 10.407 10.406v14.569c-.001 5.746-4.66 10.406-10.408 10.406z" fill="#da4a54"/></g><path d="m417.406 247.675h-322.812c-5.69 0-10.302-4.612-10.302-10.302v-14.778c0-5.69 4.612-10.302 10.302-10.302h322.811c5.69 0 10.302 4.612 10.302 10.302v14.778c0 5.69-4.612 10.302-10.301 10.302z" fill="#665e66"/><path d="m167.545-32.26h176.911v312.195h-176.911z" fill="#f6f9f9" transform="matrix(0 1 -1 0 379.837 -132.163)"/><path d="m103.626 512v-61.398c0-4.267 3.459-7.726 7.726-7.726 4.268 0 7.726 3.459 7.726 7.726v61.398z" fill="#544f57"/><g><path d="m376.715 176.911h-33.301v-99.966c0-3.414 2.767-6.181 6.181-6.181h20.939c3.414 0 6.181 2.767 6.181 6.181z" fill="#aaddb4"/><path d="m343.415 176.911h-33.301v-78.112c0-3.414 2.767-6.181 6.181-6.181h20.939c3.414 0 6.181 2.767 6.181 6.181z" fill="#e28086"/><path d="m310.114 176.911h-33.301v-36.486c0-3.414 2.767-6.181 6.181-6.181h20.939c3.414 0 6.181 2.767 6.181 6.181z" fill="#ffe07d"/></g><path d="m417.406 35.382h-322.812c-5.69 0-10.302-4.612-10.302-10.302v-14.778c.001-5.69 4.613-10.302 10.302-10.302h322.811c5.69 0 10.302 4.612 10.302 10.302v14.778c0 5.69-4.612 10.302-10.301 10.302z" fill="#665e66"/><g><path d="m54.117 415.22h114.472l-8.928-116.068c-.834-10.844-9.876-19.217-20.752-19.217h-55.112c-10.876 0-19.918 8.373-20.752 19.217z" fill="#e28086"/><path d="m63.045 299.152c.834-10.844 9.876-19.217 20.752-19.217h20.813c-10.876 0-19.918 8.373-20.752 19.217l-8.928 116.068h-20.813z" fill="#dd636e"/><path d="m54.117 450.602h114.472c5.747 0 10.407-4.659 10.407-10.406v-14.569c0-5.747-4.659-10.406-10.407-10.406h-114.472c-5.747 0-10.407 4.659-10.407 10.406v14.569c0 5.746 4.659 10.406 10.407 10.406z" fill="#da4a54"/></g><g fill="#665e66"><path d="m198.765 86.217h-63.48c-4.268 0-7.726-3.459-7.726-7.726s3.459-7.726 7.726-7.726h63.48c4.268 0 7.726 3.459 7.726 7.726s-3.459 7.726-7.726 7.726z"/><path d="m370.534 192.363h-87.54c-3.414 0-6.181-2.767-6.181-6.181v-9.272h99.902v9.272c0 3.414-2.767 6.181-6.181 6.181z"/><path d="m251.837 86.217h-19.772c-4.268 0-7.726-3.459-7.726-7.726s3.459-7.726 7.726-7.726h19.772c4.268 0 7.726 3.459 7.726 7.726s-3.458 7.726-7.726 7.726z"/><path d="m251.837 119.518h-62.439c-4.268 0-7.726-3.459-7.726-7.726s3.459-7.726 7.726-7.726h62.439c4.268 0 7.726 3.459 7.726 7.726s-3.458 7.726-7.726 7.726z"/><path d="m156.098 119.518h-20.813c-4.268 0-7.726-3.459-7.726-7.726s3.459-7.726 7.726-7.726h20.813c4.268 0 7.726 3.459 7.726 7.726s-3.459 7.726-7.726 7.726z"/><path d="m209.171 152.819h-73.886c-4.268 0-7.726-3.459-7.726-7.726s3.459-7.726 7.726-7.726h73.886c4.268 0 7.726 3.459 7.726 7.726s-3.458 7.726-7.726 7.726z"/></g><g><path d="m442.274 512h-83.252c-4.268 0-7.726-3.459-7.726-7.726s3.459-7.726 7.726-7.726h83.252c4.268 0 7.726 3.459 7.726 7.726s-3.459 7.726-7.726 7.726z" fill="#665e66"/></g><g><path d="m152.978 512h-83.252c-4.268 0-7.726-3.459-7.726-7.726s3.459-7.726 7.726-7.726h83.252c4.268 0 7.726 3.459 7.726 7.726s-3.459 7.726-7.726 7.726z" fill="#665e66"/></g></g></svg>