<svg xmlns="http://www.w3.org/2000/svg" width="55.04" height="30.08"><g stroke="#000" stroke-width=".7" stroke-linejoin="round" stroke-miterlimit="1"><path d="M28.066 19.603v-9.125l9.625-4.907v9zM16.754 5.165l10.468-4.5 10.47 4.906-9.626 4.907zm0 0v8.281l11.312 6.157v-9.125z" fill="#6483c0"/><path d="M12.102 28.775V19.65l9.625-4.907v9zM.79 14.337l10.469-4.5 10.468 4.906-9.625 4.907zm0 0v8.281l11.312 6.157V19.65z" fill="#d87b30"/><path d="M44.625 29.098v-9.125l9.625-4.906v9zM33.313 14.66l10.468-4.5 10.47 4.907-9.626 4.906zm0 0v8.282l11.312 6.156v-9.125z" fill="#952781"/><path d="M28.91 29.415V20.29l9.625-4.906v9zM17.597 14.978l10.47-4.5 10.468 4.906-9.625 4.906zm0 0v8.28l11.313 6.157V20.29z" fill="#e0d400"/></g></svg>